<svg xmlns="http://www.w3.org/2000/svg" xmlns:xlink="http://www.w3.org/1999/xlink" contentStyleType="text/css" data-diagram-type="DESCRIPTION" height="693px" preserveAspectRatio="none" style="width:925px;height:693px;background:#FFFFFF;" version="1.1" viewBox="0 0 925 693" width="925px" zoomAndPan="magnify"><defs/><g><!--cluster PostgreSql--><g class="cluster" data-entity="PostgreSql" data-source-line="8" data-uid="ent0004" id="cluster_PostgreSql"><path d="M558.08,23.4159 C558.08,13.4159 622.08,13.4159 622.08,13.4159 C622.08,13.4159 686.08,13.4159 686.08,23.4159 L686.08,115.7159 C686.08,125.7159 622.08,125.7159 622.08,125.7159 C622.08,125.7159 558.08,125.7159 558.08,115.7159 L558.08,23.4159" fill="none" style="stroke:#181818;stroke-width:1;"/><path d="M558.08,23.4159 C558.08,33.4159 622.08,33.4159 622.08,33.4159 C622.08,33.4159 686.08,33.4159 686.08,23.4159" fill="none" style="stroke:#181818;stroke-width:1;"/><text fill="#000000" font-family="sans-serif" font-size="14" font-weight="bold" lengthAdjust="spacing" textLength="86.2285" x="578.9657" y="48.411">PostgreSql</text></g><g class="cluster" data-entity="##11" data-source-line="18" data-uid="ent0012" id="cluster_##11"><path d="M373.3177,613.7182 C375.7082,608.3546 380.6005,607.6966 384.3998,612.1235 C387.5506,606.4141 392.2454,606.0779 395.4345,612.0873 C398.1678,606.2413 403.6677,605.6294 407.4985,610.8958 C410.1629,605.6639 414.112,603.6217 418.5433,609.0684 C421.0717,604.0706 425.3871,603.01 429.0907,607.8023 C432.4678,602.7506 436.6476,603.2687 439.9336,607.9042 C442.9308,602.9574 447.7882,602.7796 450.4341,608.258 C454.0694,603.2367 458.5255,603.8778 461.8927,608.5741 C465.2692,603.2546 470.4081,603.5471 473.2292,609.1505 C477.4539,603.2938 483.3771,604.6092 485.4868,611.2285 C488.6611,605.3933 493.8356,606.4593 496.4883,611.7445 C500.4414,606.3452 505.6362,607.4255 507.9214,613.4183 C515.641,617.3743 514.4997,623.2958 508.7594,628.0241 C515.3303,632.6587 517.4232,638.6214 509.441,643.8816 C515.763,650.0911 515.7922,654.9408 507.6906,659.5378 C513.5793,665.1369 514.0799,670.9208 506.3278,675.3438 C503.013,681.0661 499.7363,681.4254 495.4931,676.2684 C492.148,681.0688 489.0324,680.3389 485.7019,676.2523 C482.4756,682.019 477.4321,683.2535 473.5729,676.8848 C470.2837,681.8392 466.9376,681.7867 463.2881,677.2763 C461.0785,683.1033 455.4635,684.1015 451.1722,679.7557 C448.1042,684.458 443.2665,686.0224 439.9169,680.0527 C435.8374,685.7206 432.3446,685.5511 428.967,679.4022 C425.3851,683.5555 420.8211,683.6942 418.5029,678.0522 C415.0476,683.0292 410.1731,683.1477 406.8072,677.9494 C403.5078,682.8552 398.4152,682.1426 396.1646,676.8544 C391.8087,682.2999 388.1741,681.0407 384.751,675.8531 C380.9714,680.4291 375.4412,679.6261 372.7921,674.4647 C365.0416,671.5316 362.9427,664.4115 370.5882,659.2485 C361.975,655.1519 361.3375,649.8877 368.3403,643.5544 C362.5887,638.0368 363.8172,632.1995 371.0562,629.1274 C364.8464,623.7677 365.7348,617.0537 373.3177,613.7182" fill="none" style="stroke:#181818;stroke-width:1;"/></g><!--entity auth--><g class="entity" data-entity="auth" data-source-line="9" data-uid="ent0005" id="entity_auth"><rect fill="#F1F1F1" height="46.2969" rx="2.5" ry="2.5" style="stroke:#181818;stroke-width:0.5;" width="96.5879" x="573.78" y="63.4159"/><rect fill="#F1F1F1" height="10" style="stroke:#181818;stroke-width:0.5;" width="15" x="650.3679" y="68.4159"/><rect fill="#F1F1F1" height="2" style="stroke:#181818;stroke-width:0.5;" width="4" x="648.3679" y="70.4159"/><rect fill="#F1F1F1" height="2" style="stroke:#181818;stroke-width:0.5;" width="4" x="648.3679" y="74.4159"/><text fill="#000000" font-family="sans-serif" font-size="14" lengthAdjust="spacing" textLength="56.5879" x="588.78" y="96.411">db_auth</text></g><!--entity minio--><g class="entity" data-entity="minio" data-source-line="19" data-uid="ent0013" id="entity_minio"><rect fill="#F1F1F1" height="46.2969" rx="2.5" ry="2.5" style="stroke:#181818;stroke-width:0.5;" width="117.3965" x="380.38" y="619.8959"/><rect fill="#F1F1F1" height="10" style="stroke:#181818;stroke-width:0.5;" width="15" x="477.7765" y="624.8959"/><rect fill="#F1F1F1" height="2" style="stroke:#181818;stroke-width:0.5;" width="4" x="475.7765" y="626.8959"/><rect fill="#F1F1F1" height="2" style="stroke:#181818;stroke-width:0.5;" width="4" x="475.7765" y="630.8959"/><text fill="#000000" font-family="sans-serif" font-size="14" lengthAdjust="spacing" textLength="77.3965" x="395.38" y="652.891">play.min.io</text></g><!--entity cs--><g class="entity" data-entity="cs" data-source-line="5" data-uid="ent0002" id="entity_cs"><ellipse cx="120.0733" cy="56.9159" fill="#F1F1F1" rx="8" ry="8" style="stroke:#181818;stroke-width:0.5;"/><path d="M120.0733,64.9159 L120.0733,91.9159 M107.0733,72.9159 L133.0733,72.9159 M120.0733,91.9159 L107.0733,106.9159 M120.0733,91.9159 L133.0733,106.9159" fill="none" style="stroke:#181818;stroke-width:0.5;"/><text fill="#000000" font-family="sans-serif" font-size="14" lengthAdjust="spacing" textLength="97.1865" x="71.48" y="121.411">Client System</text></g><!--entity ags--><g class="entity" data-entity="ags" data-source-line="6" data-uid="ent0003" id="entity_ags"><rect fill="#F1F1F1" height="46.2969" rx="2.5" ry="2.5" style="stroke:#181818;stroke-width:0.5;" width="191.9492" x="347.1" y="63.4159"/><rect fill="#F1F1F1" height="10" style="stroke:#181818;stroke-width:0.5;" width="15" x="519.0492" y="68.4159"/><rect fill="#F1F1F1" height="2" style="stroke:#181818;stroke-width:0.5;" width="4" x="517.0492" y="70.4159"/><rect fill="#F1F1F1" height="2" style="stroke:#181818;stroke-width:0.5;" width="4" x="517.0492" y="74.4159"/><text fill="#000000" font-family="sans-serif" font-size="14" lengthAdjust="spacing" textLength="151.9492" x="362.1" y="96.411">auth-gateway-service</text></g><!--entity dms--><g class="entity" data-entity="dms" data-source-line="12" data-uid="ent0006" id="entity_dms"><rect fill="#F1F1F1" height="46.2969" rx="2.5" ry="2.5" style="stroke:#181818;stroke-width:0.5;" width="215.5811" x="335.29" y="216.7159"/><rect fill="#F1F1F1" height="10" style="stroke:#181818;stroke-width:0.5;" width="15" x="530.8711" y="221.7159"/><rect fill="#F1F1F1" height="2" style="stroke:#181818;stroke-width:0.5;" width="4" x="528.8711" y="223.7159"/><rect fill="#F1F1F1" height="2" style="stroke:#181818;stroke-width:0.5;" width="4" x="528.8711" y="227.7159"/><text fill="#000000" font-family="sans-serif" font-size="14" lengthAdjust="spacing" textLength="175.5811" x="350.29" y="249.711">document-maker-service</text></g><!--entity dps--><g class="entity" data-entity="dps" data-source-line="13" data-uid="ent0007" id="entity_dps"><rect fill="#F1F1F1" height="46.2969" rx="2.5" ry="2.5" style="stroke:#181818;stroke-width:0.5;" width="218.1514" x="7" y="363.1559"/><rect fill="#F1F1F1" height="10" style="stroke:#181818;stroke-width:0.5;" width="15" x="205.1514" y="368.1559"/><rect fill="#F1F1F1" height="2" style="stroke:#181818;stroke-width:0.5;" width="4" x="203.1514" y="370.1559"/><rect fill="#F1F1F1" height="2" style="stroke:#181818;stroke-width:0.5;" width="4" x="203.1514" y="374.1559"/><text fill="#000000" font-family="sans-serif" font-size="14" lengthAdjust="spacing" textLength="178.1514" x="22" y="396.151">document-printer-service</text></g><!--entity ss--><g class="entity" data-entity="ss" data-source-line="14" data-uid="ent0008" id="entity_ss"><rect fill="#FFC0CB" height="62.5938" rx="2.5" ry="2.5" style="stroke:#181818;stroke-width:0.5;" width="124.1436" x="273" y="355.0059"/><rect fill="#FFC0CB" height="10" style="stroke:#181818;stroke-width:0.5;" width="15" x="377.1436" y="360.0059"/><rect fill="#FFC0CB" height="2" style="stroke:#181818;stroke-width:0.5;" width="4" x="375.1436" y="362.0059"/><rect fill="#FFC0CB" height="2" style="stroke:#181818;stroke-width:0.5;" width="4" x="375.1436" y="366.0059"/><text fill="#000000" font-family="sans-serif" font-size="14" font-style="italic" lengthAdjust="spacing" textLength="46.915" x="306.6143" y="388.001">&#171;Plan&#187;</text><text fill="#000000" font-family="sans-serif" font-size="14" lengthAdjust="spacing" textLength="84.1436" x="288" y="404.2979">sign-service</text></g><!--entity ws--><g class="entity" data-entity="ws" data-source-line="15" data-uid="ent0009" id="entity_ws"><rect fill="#FFC0CB" height="62.5938" rx="2.5" ry="2.5" style="stroke:#181818;stroke-width:0.5;" width="180.041" x="447.06" y="355.0059"/><rect fill="#FFC0CB" height="10" style="stroke:#181818;stroke-width:0.5;" width="15" x="607.101" y="360.0059"/><rect fill="#FFC0CB" height="2" style="stroke:#181818;stroke-width:0.5;" width="4" x="605.101" y="362.0059"/><rect fill="#FFC0CB" height="2" style="stroke:#181818;stroke-width:0.5;" width="4" x="605.101" y="366.0059"/><text fill="#000000" font-family="sans-serif" font-size="14" font-style="italic" lengthAdjust="spacing" textLength="46.915" x="508.623" y="388.001">&#171;Plan&#187;</text><text fill="#000000" font-family="sans-serif" font-size="14" lengthAdjust="spacing" textLength="140.041" x="462.06" y="404.2979">whatermark-service</text></g><!--entity dss--><g class="entity" data-entity="dss" data-source-line="16" data-uid="ent0010" id="entity_dss"><rect fill="#F1F1F1" height="46.2969" rx="2.5" ry="2.5" style="stroke:#181818;stroke-width:0.5;" width="206.6055" x="335.77" y="494.6059"/><rect fill="#F1F1F1" height="10" style="stroke:#181818;stroke-width:0.5;" width="15" x="522.3755" y="499.6059"/><rect fill="#F1F1F1" height="2" style="stroke:#181818;stroke-width:0.5;" width="4" x="520.3755" y="501.6059"/><rect fill="#F1F1F1" height="2" style="stroke:#181818;stroke-width:0.5;" width="4" x="520.3755" y="505.6059"/><text fill="#000000" font-family="sans-serif" font-size="14" lengthAdjust="spacing" textLength="166.6055" x="350.77" y="527.601">document-store-service</text></g><!--link cs to ags--><g class="link" data-entity-1="cs" data-entity-2="ags" data-source-line="22" data-uid="lnk14" id="link_cs_ags"><path d="M169.13,86.5659 C216.08,86.5659 282.18,86.5659 340.64,86.5659" fill="none" id="cs-to-ags" style="stroke:#181818;stroke-width:1;"/><polygon fill="#181818" points="346.64,86.5659,337.64,82.5659,341.64,86.5659,337.64,90.5659,346.64,86.5659" style="stroke:#181818;stroke-width:1;"/><text fill="#000000" font-family="sans-serif" font-size="13" lengthAdjust="spacing" textLength="124.7568" x="186.89" y="19.6328">POST /auth/sign-up</text><text fill="#000000" font-family="sans-serif" font-size="13" lengthAdjust="spacing" textLength="120.1167" x="186.89" y="34.7656">POST /auth/sign-in</text><text fill="#000000" font-family="sans-serif" font-size="13" lengthAdjust="spacing" textLength="4.1323" x="186.89" y="49.8984">&#160;</text><text fill="#000000" font-family="sans-serif" font-size="13" lengthAdjust="spacing" textLength="117.457" x="186.89" y="65.0313">POST /api/v1/docs</text><text fill="#000000" font-family="sans-serif" font-size="13" lengthAdjust="spacing" textLength="142.2065" x="186.89" y="80.1641">GET /api/v1/docs/{id}</text></g><!--link ags to auth--><g class="link" data-entity-1="ags" data-entity-2="auth" data-source-line="23" data-uid="lnk15" id="link_ags_auth"><path d="M539.22,86.5659 C550.65,86.5659 556.09,86.5659 567.53,86.5659" fill="none" id="ags-to-auth" style="stroke:#181818;stroke-width:1;stroke-dasharray:7.0,7.0;"/><polygon fill="#181818" points="573.53,86.5659,564.53,82.5659,568.53,86.5659,564.53,90.5659,573.53,86.5659" style="stroke:#181818;stroke-width:1;"/></g><!--link ags to dms--><g class="link" data-entity-1="ags" data-entity-2="dms" data-source-line="25" data-uid="lnk16" id="link_ags_dms"><path d="M443.08,109.8859 C443.08,138.4959 443.08,181.7959 443.08,210.4459" fill="none" id="ags-to-dms" style="stroke:#181818;stroke-width:1;"/><polygon fill="#181818" points="443.08,216.4459,447.08,207.4459,443.08,211.4459,439.08,207.4459,443.08,216.4459" style="stroke:#181818;stroke-width:1;"/><text fill="#000000" font-family="sans-serif" font-size="13" lengthAdjust="spacing" textLength="117.457" x="444.08" y="167.7828">POST /api/v1/docs</text><text fill="#000000" font-family="sans-serif" font-size="13" lengthAdjust="spacing" textLength="142.2065" x="444.08" y="182.9156">GET /api/v1/docs/{id}</text></g><!--link dms to dps--><g class="link" data-entity-1="dms" data-entity-2="dps" data-source-line="27" data-uid="lnk17" id="link_dms_dps"><path d="M334.96,243.3859 C250.58,247.9059 143.1,260.1759 115.08,293.0059 C98.85,312.0259 101.2139,336.3412 106.7539,356.9712" fill="none" id="dms-to-dps" style="stroke:#181818;stroke-width:1;"/><polygon fill="#181818" points="108.31,362.7659,109.839,353.0365,107.0132,357.937,102.1127,355.1113,108.31,362.7659" style="stroke:#181818;stroke-width:1;"/><text fill="#000000" font-family="sans-serif" font-size="13" lengthAdjust="spacing" textLength="166.0103" x="116.08" y="306.0728">POST /api/v1/printedDocs</text><text fill="#000000" font-family="sans-serif" font-size="13" lengthAdjust="spacing" textLength="190.7598" x="116.08" y="321.2056">GET /api/v1/printedDocs/{id}</text></g><!--link dms to ss--><g class="link" data-entity-1="dms" data-entity-2="ss" data-source-line="28" data-uid="lnk18" id="link_dms_ss"><path d="M356.07,263.3859 C342.62,270.6759 330.44,280.2959 322.08,293.0059 C310.16,311.1259 312.3198,329.8952 318.9498,349.0752" fill="none" id="dms-to-ss" style="stroke:#181818;stroke-width:1;"/><polygon fill="#181818" points="320.91,354.7459,321.7502,344.933,319.2765,350.0203,314.1892,347.5466,320.91,354.7459" style="stroke:#181818;stroke-width:1;"/><text fill="#000000" font-family="sans-serif" font-size="13" lengthAdjust="spacing" textLength="162.3413" x="323.08" y="306.0728">POST /api/v1/signedDocs</text><text fill="#000000" font-family="sans-serif" font-size="13" lengthAdjust="spacing" textLength="187.0908" x="323.08" y="321.2056">GET /api/v1/signedDocs/{id}</text></g><!--link dms to ws--><g class="link" data-entity-1="dms" data-entity-2="ws" data-source-line="29" data-uid="lnk19" id="link_dms_ws"><path d="M487.93,263.2859 C499.69,271.1759 511.26,281.1059 519.08,293.0059 C531.08,311.2959 534.9996,329.7428 536.4396,348.8728" fill="none" id="dms-to-ws" style="stroke:#181818;stroke-width:1;"/><polygon fill="#181818" points="536.89,354.8559,540.2032,345.5811,536.5147,349.87,532.2257,346.1816,536.89,354.8559" style="stroke:#181818;stroke-width:1;"/><text fill="#000000" font-family="sans-serif" font-size="13" lengthAdjust="spacing" textLength="175.3096" x="532.08" y="306.0728">POST /api/v1/changedDocs</text><text fill="#000000" font-family="sans-serif" font-size="13" lengthAdjust="spacing" textLength="200.0591" x="532.08" y="321.2056">GET /api/v1/changedDocs/{id}</text></g><!--link dms to dss--><g class="link" data-entity-1="dms" data-entity-2="dss" data-source-line="30" data-uid="lnk20" id="link_dms_dss"><path d="M551.1,245.5059 C626.13,251.2659 716.83,264.1559 741.08,293.0059 C801.89,365.3859 797.13,350.5259 617.08,464.6059 C594.63,478.8159 573.9168,487.5614 548.3568,495.2314" fill="none" id="dms-to-dss" style="stroke:#181818;stroke-width:1;"/><polygon fill="#181818" points="542.61,496.9559,552.3799,498.2004,547.399,495.5188,550.0806,490.5379,542.61,496.9559" style="stroke:#181818;stroke-width:1;"/><text fill="#000000" font-family="sans-serif" font-size="13" lengthAdjust="spacing" textLength="142.2065" x="775.08" y="390.8728">GET /api/v1/docs/{id}</text></g><!--link dps to dss--><g class="link" data-entity-1="dps" data-entity-2="dss" data-source-line="33" data-uid="lnk21" id="link_dps_dss"><path d="M139.46,409.8659 C158.79,427.2959 187.74,450.7159 217.08,464.6059 C253.94,482.0459 291.194,492.6825 329.594,500.6125" fill="none" id="dps-to-dss" style="stroke:#181818;stroke-width:1;"/><polygon fill="#181818" points="335.47,501.8259,327.465,496.0884,330.5733,500.8147,325.847,503.9231,335.47,501.8259" style="stroke:#181818;stroke-width:1;"/><text fill="#000000" font-family="sans-serif" font-size="13" lengthAdjust="spacing" textLength="117.457" x="218.08" y="460.6728">POST /api/v1/docs</text></g><!--link ws to dss--><g class="link" data-entity-1="ws" data-entity-2="dss" data-source-line="34" data-uid="lnk22" id="link_ws_dss"><path d="M513.85,417.9859 C496.08,441.4559 475.6014,468.502 459.6214,489.612" fill="none" id="ws-to-dss" style="stroke:#181818;stroke-width:1;"/><polygon fill="#181818" points="456,494.3959,464.6213,489.6343,459.0178,490.4093,458.2428,484.8058,456,494.3959" style="stroke:#181818;stroke-width:1;"/><text fill="#000000" font-family="sans-serif" font-size="13" lengthAdjust="spacing" textLength="117.457" x="491.08" y="460.6728">POST /api/v1/docs</text></g><!--link ss to dss--><g class="link" data-entity-1="ss" data-entity-2="dss" data-source-line="35" data-uid="lnk23" id="link_ss_dss"><path d="M336.17,417.8659 C338.04,433.0959 342.37,451.1059 352.08,464.6059 C360.82,476.7559 368.2072,483.4954 381.0372,491.2054" fill="none" id="ss-to-dss" style="stroke:#181818;stroke-width:1;"/><polygon fill="#181818" points="386.18,494.2959,380.5261,486.2316,381.8943,491.7205,376.4054,493.0887,386.18,494.2959" style="stroke:#181818;stroke-width:1;"/><text fill="#000000" font-family="sans-serif" font-size="13" lengthAdjust="spacing" textLength="117.457" x="353.08" y="460.6728">POST /api/v1/docs</text></g><!--link dss to minio--><g class="link" data-entity-1="dss" data-entity-2="minio" data-source-line="37" data-uid="lnk24" id="link_dss_minio"><path d="M439.08,541.3659 C439.08,563.6159 439.08,591.3759 439.08,613.5759" fill="none" id="dss-to-minio" style="stroke:#181818;stroke-width:1;"/><polygon fill="#181818" points="439.08,619.5759,443.08,610.5759,439.08,614.5759,435.08,610.5759,439.08,619.5759" style="stroke:#181818;stroke-width:1;"/><text fill="#000000" font-family="sans-serif" font-size="13" lengthAdjust="spacing" textLength="160.9004" x="440.08" y="583.9628">S3 ( based on REST API )</text></g><!--SRC=[XLD1IyCm6BtdLtpqf8UsY3SP1T4XdYpMsoQI9Q4DJPEOf2jZxB-RjD9rwvotyDxxtllUHsjhBZKsk06Y6gqaamxs2623ILqQrKhwf8GoYqKkiCmooBciqG6Xw4dme2rsrh4c0co1MBJ2hQlY4ZlMuLricTbomZu3YKkB4CKERx1b4ENAkjAmubj4VToARhx2xA3rZv2neegqZK-96rmpS-976plXjU7IdIkqLrXUoYCwjl2qzMnN-KrDWqrzMTDDCwnJXfqcU0z4X6hfq44Bl4iQBXEkUju_kGf5Y8NOyB9oSHOE0G-GlnKVa8QYQRzYgzVY7EDoBKPKytHxb_fbx5gyB4-HTC_f0GNZf4z9ik64FHHJrKcVwmzspFtV3GNzEAjdiyF5wVFCOa8CJbCZE_C9JI_P7F6vIpTp8HMMvIMR2J7teVqwV_H7eNGygcQ7Gzrrsbwd4VqLz1-9bnJtS0FXvw2W9Bml_S1Z_WgtFm00]--></g></svg>